Jump_normalized_pl02_filtered_grf
version=1
nRows=27
nColumns=37
inDegrees=yes
endheader
time		1_ground_force_vx		1_ground_force_vy		1_ground_force_vz		1_ground_force_px		1_ground_force_py		1_ground_force_pz		1_ground_torque_x		1_ground_torque_y		1_ground_torque_z		2_ground_force_vx		2_ground_force_vy		2_ground_force_vz		2_ground_force_px		2_ground_force_py		2_ground_force_pz		2_ground_torque_x		2_ground_torque_y		2_ground_torque_z		3_ground_force_vx		3_ground_force_vy		3_ground_force_vz		3_ground_force_px		3_ground_force_py		3_ground_force_pz		3_ground_torque_x		3_ground_torque_y		3_ground_torque_z		4_ground_force_vx		4_ground_force_vy		4_ground_force_vz		4_ground_force_px		4_ground_force_py		4_ground_force_pz		4_ground_torque_x		4_ground_torque_y		4_ground_torque_z		
0.408667		0.000000		-0.000000		-0.000000		0.145658		0.000000		0.221846		-0.000000		-0.000000		0.000000		-0.000000		-0.000000		-0.000000		-0.297438		0.000000		0.094812		-0.000000		0.000000		-0.000000		-120.338714		585.716711		-43.255640		0.412932		1.261583		1.876518		4.867559		-23.691555		1.749636		124.798111		725.112594		-49.459765		-0.354932		1.256024		1.904024		7.162229		41.614584		-2.838526		
0.411141		0.000000		-0.000000		-0.000000		0.145658		0.000000		0.221846		-0.000000		-0.000000		0.000000		-0.000000		-0.000000		-0.000000		-0.297438		0.000000		0.094812		-0.000000		0.000000		-0.000000		-120.337208		579.906362		-47.514318		0.412936		1.261620		1.876604		4.856847		-23.405205		1.917690		124.347422		715.258128		-54.241658		-0.354915		1.256047		1.904063		7.147951		41.115685		-3.118015		
0.413616		0.000000		-0.000000		0.000000		0.145658		0.000000		0.221846		-0.000000		0.000000		0.000000		-0.000000		-0.000000		0.000000		-0.297438		0.000000		0.094812		0.000000		0.000000		-0.000000		-120.194214		574.068265		-51.852666		0.412943		1.261657		1.876684		4.841065		-23.121764		2.088468		123.886482		705.387242		-58.992727		-0.354898		1.256073		1.904101		7.131639		40.606261		-3.395973		
0.416091		0.000000		0.000000		0.000000		0.145658		0.000000		0.221846		0.000000		0.000000		-0.000000		-0.000000		0.000000		0.000000		-0.297438		0.000000		0.094812		0.000000		0.000000		0.000000		-119.902052		568.163096		-56.246979		0.412954		1.261689		1.876758		4.819853		-22.839165		2.261028		123.415618		695.516003		-63.704524		-0.354881		1.256102		1.904137		7.113214		40.086935		-3.671692		
0.418566		-0.000000		0.000000		0.000000		0.145658		0.000000		0.221846		0.000000		0.000000		-0.000000		0.000000		0.000000		0.000000		-0.297438		0.000000		0.094812		0.000000		-0.000000		0.000000		-119.449570		562.153772		-60.671256		0.412966		1.261719		1.876824		4.792785		-22.555816		2.434367		122.934123		685.655300		-68.367800		-0.354865		1.256134		1.904174		7.092513		39.557926		-3.944386		
0.421040		-0.000000		0.000000		0.000000		0.145658		0.000000		0.221846		0.000000		0.000000		-0.000000		0.000000		0.000000		0.000000		-0.297438		0.000000		0.094812		0.000000		-0.000000		0.000000		-118.821497		556.009433		-65.099163		0.412980		1.261743		1.876881		4.759365		-22.270815		2.607529		122.438976		675.809450		-72.971039		-0.354848		1.256168		1.904210		7.069234		39.019070		-4.213114		
0.423515		-0.000000		0.000000		0.000000		0.145658		0.000000		0.221846		0.000000		0.000000		-0.000000		0.000000		0.000000		0.000000		-0.297438		0.000000		0.094812		0.000000		-0.000000		0.000000		-117.998531		549.708418		-69.506065		0.412993		1.261764		1.876928		4.719018		-21.984034		2.779698		121.923445		665.974715		-77.498901		-0.354831		1.256203		1.904246		7.042874		38.469840		-4.476702		
0.425990		-0.000000		0.000000		0.000000		0.145658		0.000000		0.221846		0.000000		0.000000		-0.000000		0.000000		0.000000		0.000000		-0.297438		0.000000		0.094812		0.000000		-0.000000		0.000000		-116.958062		543.239766		-73.870939		0.413004		1.261781		1.876968		4.671113		-21.696101		2.950284		121.375627		656.138100		-81.930826		-0.354814		1.256237		1.904283		7.012669		37.909418		-4.733683		
0.428465		-0.000000		0.000000		0.000000		0.145658		0.000000		0.221846		0.000000		0.000000		-0.000000		0.000000		0.000000		0.000000		-0.297438		0.000000		0.094812		0.000000		-0.000000		0.000000		-115.676072		536.603575		-78.178253		0.413013		1.261794		1.876998		4.614997		-21.408267		3.118989		120.777097		646.276957		-86.240359		-0.354797		1.256270		1.904320		6.977556		37.336828		-4.982293		
0.430939		-0.000000		0.000000		0.000000		0.145658		0.000000		0.221846		0.000000		0.000000		-0.000000		0.000000		0.000000		0.000000		-0.297438		0.000000		0.094812		0.000000		-0.000000		0.000000		-114.129818		529.809826		-82.419748		0.413020		1.261804		1.877023		4.550065		-21.122167		3.285865		120.101977		636.360065		-90.395719		-0.354779		1.256299		1.904357		6.936144		36.751142		-5.220544		
0.433414		-0.000000		0.000000		0.000000		0.145658		0.000000		0.221846		0.000000		0.000000		-0.000000		0.000000		0.000000		0.000000		-0.297438		0.000000		0.094812		0.000000		-0.000000		0.000000		-112.299657		522.875103		-86.595545		0.413023		1.261814		1.877041		4.475776		-20.839528		3.451321		119.316222		626.349959		-94.361016		-0.354762		1.256324		1.904394		6.886691		36.151655		-5.446326		
0.435889		-0.000000		0.000000		0.000000		0.145658		0.000000		0.221846		0.000000		0.000000		-0.000000		0.000000		0.000000		0.000000		-0.297438		0.000000		0.094812		0.000000		-0.000000		0.000000		-110.171737		515.818950		-90.714923		0.413023		1.261825		1.877059		4.391722		-20.561840		3.616125		118.377927		616.206500		-98.099043		-0.354743		1.256343		1.904429		6.827142		35.538120		-5.657607		
0.438364		-0.000000		0.000000		-0.000000		0.145658		0.000000		0.221846		0.000000		-0.000000		-0.000000		0.000000		0.000000		-0.000000		-0.297438		0.000000		0.094812		-0.000000		-0.000000		0.000000		-107.739978		508.659315		-94.796073		0.413020		1.261837		1.877075		4.297662		-20.290017		3.781342		117.238606		605.891008		-101.574827		-0.354725		1.256356		1.904462		6.755185		34.910908		-5.852650		
0.440838		0.000000		-0.000000		-0.000000		0.145658		0.000000		0.221846		-0.000000		-0.000000		0.000000		0.000000		-0.000000		-0.000000		-0.297438		0.000000		0.094812		-0.000000		0.000000		-0.000000		-105.007297		501.407734		-98.864513		0.413014		1.261853		1.877094		4.193550		-20.024123		3.948237		115.845600		595.370216		-104.759537		-0.354707		1.256364		1.904491		6.668380		34.271090		-6.030234		
0.443313		0.000000		-0.000000		-0.000000		0.145658		0.000000		0.221846		-0.000000		-0.000000		0.000000		-0.000000		-0.000000		-0.000000		-0.297438		0.000000		0.094812		-0.000000		0.000000		-0.000000		-101.985880		494.064670		-102.950015		0.413006		1.261873		1.877114		4.079552		-19.763156		4.118123		114.145549		584.619271		-107.634213		-0.354689		1.256364		1.904516		6.564300		33.620377		-6.189843		
0.445788		0.000000		-0.000000		-0.000000		0.145658		0.000000		0.221846		-0.000000		-0.000000		0.000000		-0.000000		-0.000000		-0.000000		-0.297438		0.000000		0.094812		-0.000000		0.000000		-0.000000		-98.696445		486.615417		-107.082194		0.412995		1.261897		1.877139		3.956031		-19.504924		4.292163		112.088772		573.623134		-110.192788		-0.354672		1.256360		1.904535		6.440722		32.960903		-6.331775		
0.448263		0.000000		-0.000000		-0.000000		0.145658		0.000000		0.221846		-0.000000		-0.000000		0.000000		-0.000000		-0.000000		-0.000000		-0.297438		0.000000		0.094812		-0.000000		0.000000		-0.000000		-95.166609		479.026968		-111.285216		0.412981		1.261926		1.877170		3.823535		-19.246011		4.471146		109.634187		562.375961		-112.443921		-0.354654		1.256353		1.904548		6.295823		32.294852		-6.457173		
0.450737		0.000000		-0.000000		-0.000000		0.145658		0.000000		0.221846		-0.000000		-0.000000		0.000000		-0.000000		-0.000000		-0.000000		-0.297438		0.000000		0.094812		-0.000000		0.000000		-0.000000		-91.428505		471.246163		-115.572204		0.412966		1.261958		1.877204		3.682746		-18.981839		4.655266		106.754279		550.878385		-114.411312		-0.354636		1.256343		1.904555		6.128384		31.623971		-6.567946		
0.453212		0.000000		-0.000000		-0.000000		0.145658		0.000000		0.221846		-0.000000		-0.000000		0.000000		-0.000000		-0.000000		-0.000000		-0.297438		0.000000		0.094812		-0.000000		0.000000		-0.000000		-87.515836		463.199307		-119.940034		0.412948		1.261993		1.877242		3.534420		-18.706809		4.843916		103.439540		539.133035		-116.132355		-0.354616		1.256333		1.904558		5.937967		30.949036		-6.666600		
0.455687		0.000000		-0.000000		-0.000000		0.145658		0.000000		0.221846		-0.000000		-0.000000		0.000000		-0.000000		-0.000000		-0.000000		-0.297438		0.000000		0.094812		-0.000000		0.000000		-0.000000		-83.460735		454.793341		-124.365067		0.412930		1.262029		1.877283		3.379312		-18.414524		5.035532		99.701731		527.138892		-117.655103		-0.354595		1.256325		1.904557		5.725065		30.269330		-6.755984		
0.458162		0.000000		-0.000000		-0.000000		0.145658		0.000000		0.221846		-0.000000		-0.000000		0.000000		-0.000000		-0.000000		-0.000000		-0.297438		0.000000		0.094812		-0.000000		0.000000		-0.000000		-79.290847		445.918525		-128.800227		0.412909		1.262064		1.877325		3.218101		-18.098074		5.227499		95.575378		514.885409		-119.033735		-0.354571		1.256320		1.904553		5.491191		29.582246		-6.838970		
0.460636		0.000000		-0.000000		-0.000000		0.145658		0.000000		0.221846		-0.000000		-0.000000		0.000000		-0.000000		-0.000000		-0.000000		-0.297438		0.000000		0.094812		-0.000000		0.000000		-0.000000		-75.027103		436.452534		-133.173707		0.412888		1.262099		1.877364		3.051324		-17.750368		5.416131		91.117079		502.347441		-120.322690		-0.354544		1.256320		1.904546		5.238888		28.883087		-6.918103		
0.463111		0.000000		0.000000		0.000000		0.145658		0.000000		0.221846		0.000000		0.000000		-0.000000		-0.000000		0.000000		0.000000		-0.297438		0.000000		0.094812		0.000000		0.000000		0.000000		-70.682466		426.265917		-137.389439		0.412866		1.262131		1.877400		2.879344		-17.364511		5.596745		86.402595		489.482002		-121.569889		-0.354513		1.256325		1.904540		4.971667		28.165151		-6.995222		
0.465586		-0.000000		0.000000		0.000000		0.145658		0.000000		0.221846		0.000000		0.000000		-0.000000		0.000000		0.000000		0.000000		-0.297438		0.000000		0.094812		0.000000		-0.000000		0.000000		-66.261765		415.228794		-141.329421		0.412844		1.262161		1.877429		2.702337		-16.934179		5.763806		81.521970		476.227657		-122.809506		-0.354479		1.256337		1.904533		4.693849		27.420103		-7.071092		
0.468061		-0.000000		0.000000		0.000000		0.145658		0.000000		0.221846		0.000000		0.000000		-0.000000		0.000000		0.000000		0.000000		-0.297438		0.000000		0.094812		0.000000		-0.000000		0.000000		-61.762564		403.218549		-144.857761		0.412823		1.262188		1.877449		2.520321		-16.453982		5.911155		76.573188		462.506898		-124.055062		-0.354440		1.256353		1.904527		4.410325		26.638641		-7.145100		
0.470535		-0.000000		0.000000		0.000000		0.145658		0.000000		0.221846		0.000000		0.000000		-0.000000		0.000000		0.000000		0.000000		-0.297438		0.000000		0.094812		0.000000		-0.000000		0.000000		-57.177103		390.128087		-147.826196		0.412803		1.262212		1.877458		2.333205		-15.919812		6.032288		71.654948		448.231423		-125.293702		-0.354397		1.256374		1.904522		4.126242		25.811357		-7.215024		
0.473010		-0.000000		0.000000		0.000000		0.145658		0.000000		0.221846		0.000000		0.000000		-0.000000		0.000000		0.000000		0.000000		-0.297438		0.000000		0.094812		0.000000		-0.000000		0.000000		-52.495198		375.874111		-150.080783		0.412784		1.262236		1.877454		2.140890		-15.329120		6.120683		66.859256		433.309631		-126.482556		-0.354352		1.256399		1.904517		3.846626		24.929687		-7.276945		
